<svg id="Capa_1" data-name="Capa 1" xmlns="http://www.w3.org/2000/svg" width="32.59" height="32.59" viewBox="0 0 32.6 32.6"><title>afa</title><path d="M249.59,198.91a16.3,16.3,0,1,0,16.28,16.32v0A16.32,16.32,0,0,0,249.59,198.91Zm0,30.73A14.43,14.43,0,1,1,264,215.21h0a14.46,14.46,0,0,1-14.43,14.43Z" transform="translate(-233.27 -198.91)" style="fill:#fff"/><path d="M253.36,206.37h-2.21a3.28,3.28,0,0,0-3.28,3.28v2.48h-2.06a.94.94,0,0,0-.84,1,1,1,0,0,0,.84.84h2.06v8.63a.93.93,0,0,0,1.86,0V214h3.19a.94.94,0,0,0,.84-1,1,1,0,0,0-.84-.84h-3.19v-2.48a1.43,1.43,0,0,1,1.42-1.42h2.21a.93.93,0,1,0,0-1.86Z" transform="translate(-233.27 -198.91)" style="fill:#fff"/></svg>