<svg id="Layer_1" data-name="Layer 1" xmlns="http://www.w3.org/2000/svg" width="32.59" height="32.59" viewBox="0 0 32.51 32.58"><title>afa</title><path d="M324.86,273.21H311.72a9.69,9.69,0,0,0-9.68,9.67v13.23a9.7,9.7,0,0,0,9.68,9.68h13.14a9.69,9.69,0,0,0,9.69-9.68V282.88A9.69,9.69,0,0,0,324.86,273.21Zm8.44,22.9a8.44,8.44,0,0,1-8.44,8.38H311.72a8.43,8.43,0,0,1-8.38-8.38V282.88a8.43,8.43,0,0,1,8.38-8.37h13.14a8.43,8.43,0,0,1,8.44,8.37Z" transform="translate(-302.04 -273.21)" style="fill:#f9f9f9"/><path d="M324.86,276.91H311.72a6,6,0,0,0-6,6v13.23a6,6,0,0,0,6,6h13.14a6,6,0,0,0,6-6V282.88A6,6,0,0,0,324.86,276.91Zm4.68,19.2a4.68,4.68,0,0,1-4.68,4.68H311.72a4.7,4.7,0,0,1-4.68-4.68V282.88a4.7,4.7,0,0,1,4.68-4.67h13.14a4.68,4.68,0,0,1,4.68,4.67Z" transform="translate(-302.04 -273.21)" style="fill:#f9f9f9"/><path d="M318.29,281.11a8.39,8.39,0,1,0,8.39,8.39A8.39,8.39,0,0,0,318.29,281.11Zm0,15.48a7.09,7.09,0,1,1,7.08-7.1h0A7.1,7.1,0,0,1,318.29,296.59Z" transform="translate(-302.04 -273.21)" style="fill:#f9f9f9"/><path d="M318.29,284.73a4.77,4.77,0,1,0,4.77,4.77h0A4.79,4.79,0,0,0,318.29,284.73Zm0,8.24a3.47,3.47,0,1,1,3.47-3.47,3.47,3.47,0,0,1-3.47,3.47Z" transform="translate(-302.04 -273.21)" style="fill:#f9f9f9"/><path d="M326.21,279.56a2,2,0,1,0,2,2A2,2,0,0,0,326.21,279.56Zm0,2.73a.72.72,0,1,1,.72-.71A.71.71,0,0,1,326.21,282.29Z" transform="translate(-302.04 -273.21)" style="fill:#f9f9f9"/><path d="M317.26,302.68h-6.11a.64.64,0,0,0-.65.64h0a.64.64,0,0,0,.65.64h6.11a.65.65,0,0,0,0-1.29Z" transform="translate(-302.04 -273.21)" style="fill:#f9f9f9"/><path d="M319.72,302.68h-.39a.65.65,0,0,0-.65.65.64.64,0,0,0,.64.64h.4a.65.65,0,0,0,0-1.29Z" transform="translate(-302.04 -273.21)" style="fill:#f9f9f9"/></svg>