<svg id="Layer_1" data-name="Layer 1" xmlns="http://www.w3.org/2000/svg" width="90" height="90" viewBox="0 0 267 267"><title>apps</title><rect width="267" height="267" style="fill:#3dcfd3"/><path d="M309.9,242.55h0a5.88,5.88,0,0,0-5.65-4h-3.91V167.89a12.82,12.82,0,0,0-12.9-12.9H218a14.35,14.35,0,0,0-14.14,14.13V281.56c0,7.32,6.73,13.52,14,13.52H288a1.31,1.31,0,0,1,1.34,1.35c-.06.77-.71,1.11-1.47,1.11h-28l21.36,12.29h49.15Zm-56.84,46.51a3.36,3.36,0,0,1-3.44-3.44,3.48,3.48,0,0,1,3.44-3.44,3.35,3.35,0,0,1,3.44,3.44A3.39,3.39,0,0,1,253.06,289.06Zm38.07-50.51H279.05a6.23,6.23,0,0,0-6,6.15h0a6.22,6.22,0,0,0,6,6.14h12.17v25.81H213.71V172.81h77.42ZM264,193.87a5.38,5.38,0,1,1,5.37,5.37A5.39,5.39,0,0,1,264,193.87Zm18.5-13.31V233.4l-60.1,0V180.56Zm-3.59,3.66H226.06v38.83l16.15-30.73,11,22.53,10.94-7.2,14.72,14Z" transform="translate(-116 -94)"/></svg>