<svg id="Capa_1" data-name="Capa 1" xmlns="http://www.w3.org/2000/svg" width="90" height="90" viewBox="0 0 270 258"><title>motion</title><rect width="270" height="258" style="fill:#3dcfd3"/><path d="M348.73,215H212.27a2.44,2.44,0,0,0-2.44,2.44V324.61a2.44,2.44,0,0,0,2.44,2.44H348.73a2.44,2.44,0,0,0,2.44-2.44V217.39A2.44,2.44,0,0,0,348.73,215ZM234.2,322.17H214.71V300.24H234.2Zm0-26.8H214.71V273.44H234.2Zm0-26.81H214.71V246.63H234.2Zm0-26.8H214.71V219.83H234.2Zm64.67,31.3-26.81,17.05a2.44,2.44,0,0,1-2.48.08,2.41,2.41,0,0,1-1.26-2.13V253.94a2.43,2.43,0,0,1,3.74-2.05l26.81,17.05a2.45,2.45,0,0,1,0,4.12Zm47.42,49.11H326.8V300.24h19.49Zm0-26.8H326.8V273.44h19.49Zm0-26.81H326.8V246.63h19.49Zm0-26.8H326.8V219.83h19.49Z" transform="translate(-141 -142)"/></svg>