<svg id="Layer_1" data-name="Layer 1" xmlns="http://www.w3.org/2000/svg" width="32.59" height="32.59" viewBox="0 0 32.62 32.65"><title>afaf</title><path d="M219.1,192.33a16.29,16.29,0,0,0-26.89,16.95.51.51,0,0,0,.65.32h0a.52.52,0,0,0,.31-.66,15.26,15.26,0,1,1,1,2.34.51.51,0,0,0-.71-.13.52.52,0,0,0-.18.62,16.3,16.3,0,1,0,25.78-19.41Z" transform="translate(-191.28 -187.55)" style="fill:#fff"/><path d="M216,195.7a10.52,10.52,0,0,0-5.84-3.73,11.22,11.22,0,0,0-6.71.33,10.54,10.54,0,0,0-4.77,3.64,10.11,10.11,0,0,0-.7,11.23,1.83,1.83,0,0,0,3.12-1.88,6.45,6.45,0,0,1,.5-7.18,7.11,7.11,0,0,1,7.7-2.6c2.7.66,5.44,3,4.94,6.7a7.78,7.78,0,0,1-2.27,4.67,4.17,4.17,0,0,1-3.11,1.38,4,4,0,0,1-2-.72c.54-1.71.94-3.17,1.21-4.35.52-2.34.53-3.61,0-4.52a2.21,2.21,0,0,0-1.56-1.13,3.11,3.11,0,0,0-3.06,1.31,8.23,8.23,0,0,0-1.55,3.89,9.37,9.37,0,0,0,.53,4.83,5.72,5.72,0,0,0,.32.66c-1.09,3.24-2.2,6.1-2.21,6.13a1.77,1.77,0,0,0,0,1.39,1.74,1.74,0,0,0,1,1,1.65,1.65,0,0,0,.66.13h0a1.82,1.82,0,0,0,1.7-1.17c0-.08.78-2.09,1.69-4.61a7.91,7.91,0,0,0,2.78.78,7.73,7.73,0,0,0,6.08-2.34,11.4,11.4,0,0,0,3.36-6.82A9.29,9.29,0,0,0,216,195.7Zm.85,6.86a10.44,10.44,0,0,1-3.06,6.22,6.39,6.39,0,0,1-8.16,1.12.51.51,0,0,0-.71.13.83.83,0,0,0-.07.13c-1,2.77-1.84,5.07-1.88,5.16a.78.78,0,0,1-.78.52h0a.67.67,0,0,1-.28-.06.78.78,0,0,1-.46-.43.81.81,0,0,1,0-.61s1.18-3,2.29-6.38a.52.52,0,0,0,0-.42,5.56,5.56,0,0,1-.37-.78,8.25,8.25,0,0,1-.46-4.29,7.29,7.29,0,0,1,1.31-3.41,2.29,2.29,0,0,1,1.78-1h.3a1.18,1.18,0,0,1,.84.61c.37.66.34,1.79-.11,3.8-.28,1.23-.71,2.78-1.29,4.61a.5.5,0,0,0,.13.52,4.79,4.79,0,0,0,2.83,1.18,5.19,5.19,0,0,0,4-1.59,8.79,8.79,0,0,0,2.57-5.26c.55-4.28-2.58-7.06-5.71-7.83a8.12,8.12,0,0,0-8.76,3,7.48,7.48,0,0,0-.55,8.32.81.81,0,0,1-.27,1.11.8.8,0,0,1-1.1-.27h0a9.09,9.09,0,0,1,.63-10.12,9.71,9.71,0,0,1,4.33-3.31,10.36,10.36,0,0,1,6.11-.29,9.54,9.54,0,0,1,5.27,3.37A8.29,8.29,0,0,1,216.86,202.56Z" transform="translate(-191.28 -187.55)" style="fill:#fff"/></svg>