<svg id="Capa_1" data-name="Capa 1" xmlns="http://www.w3.org/2000/svg" width="90" height="90" viewBox="0 0 369 339"><title>webdesign</title><rect width="369" height="339" style="fill:#3dcfd3"/><path d="M452.18,266.06H303.83A14.84,14.84,0,0,0,289,280.88v96.69a14.84,14.84,0,0,0,14.83,14.83h47.79l-9.07,20a6.68,6.68,0,0,0,6.08,9.43h58.75a6.68,6.68,0,0,0,5.92-9.75l-8.92-19.68h47.79A14.84,14.84,0,0,0,467,377.57V280.88A14.84,14.84,0,0,0,452.18,266.06Zm1.47,111.51a1.48,1.48,0,0,1-1.47,1.48H303.83a1.48,1.48,0,0,1-1.48-1.48V280.88a1.47,1.47,0,0,1,1.48-1.47H452.18a1.47,1.47,0,0,1,1.47,1.47v96.69Z" transform="translate(-186 -164)"/><path d="M398.56,297.86a1.32,1.32,0,0,0-1.85.15l-7.25,7.24a1.34,1.34,0,0,0-.15,1.86l10.28,10.28a1.16,1.16,0,0,0,.9.31,1.59,1.59,0,0,0,1-.47l7.24-7.24a1.32,1.32,0,0,0,.15-1.85Z" transform="translate(-186 -164)"/><path d="M354.12,342.87a1.19,1.19,0,0,0-1.24-.23,1.63,1.63,0,0,0-1,1l-4.94,14.65a1.19,1.19,0,0,0,.23,1.24,1.11,1.11,0,0,0,.9.3,1.3,1.3,0,0,0,.33-.07l14.66-4.95a1.64,1.64,0,0,0,1-1,1.19,1.19,0,0,0-.23-1.24Z" transform="translate(-186 -164)"/><path d="M391.13,336a2.28,2.28,0,0,0,.8-3.53c-.86-1-1.75-2.05-2.67-3.09l8-8a1.55,1.55,0,0,0,.46-1,1.11,1.11,0,0,0-.31-.9l-10.28-10.28a1.32,1.32,0,0,0-1.85.16l-7.85,7.84a152.26,152.26,0,0,0-15.2-12.78c-3.28-2.36-9.28-6.32-12.62-6.37a2.27,2.27,0,0,0-2.3,2.28c0,2.28,2,6.39,5.62,11.56a146.32,146.32,0,0,0,13.54,16.27l-10.23,10.24a1.32,1.32,0,0,0-.16,1.85l10.29,10.28a1.07,1.07,0,0,0,.89.31,1.57,1.57,0,0,0,1-.46L378.69,340c.91.8,1.82,1.59,2.71,2.34a2.25,2.25,0,0,0,1.46.54,2.22,2.22,0,0,0,.37,0,2.26,2.26,0,0,0,1.57-1.06,16,16,0,0,1,2.36-2.95A13.58,13.58,0,0,1,391.13,336Z" transform="translate(-186 -164)"/><path d="M396.82,337.94a10.29,10.29,0,0,0-7.3,3.25c-2.55,2.56-3.67,5.24-3.22,7.76s2.42,4.73,5.43,6.13a24.87,24.87,0,0,0,7,1.91,14.33,14.33,0,0,1,6.11,1.92,2.27,2.27,0,0,0,3.53-1.57c.79-5.89-.34-11.18-3.19-14.9A10.72,10.72,0,0,0,396.82,337.94Z" transform="translate(-186 -164)"/></svg>