<svg id="Capa_1" data-name="Capa 1" xmlns="http://www.w3.org/2000/svg" width="90" height="90" viewBox="0 0 145 136.81"><title>brush</title><rect width="145" height="136.81" style="fill:#3dcfd3"/><path d="M486.67,311.11c-5.83,6.88-14,15.62-22.95,24.59-10.86,10.86-21.56,20.67-28.62,26.25a1.45,1.45,0,0,1-1.91-.11L430,358.61a1.45,1.45,0,0,1-.11-1.91c5.58-7.06,15.4-17.76,26.25-28.61,9-9,17.71-17.13,24.59-22.95,11.64-9.85,12.75-8.74,13.73-7.76S496.51,299.47,486.67,311.11ZM412.42,367c-5.51,5.51-13.76,27.86-3.78,16.17s10.65,1.72,16.16-3.79,7.2-12.74,3.78-16.16S417.93,361.5,412.42,367ZM429,359a1.44,1.44,0,0,0-2,2l3.68,3.68a1.44,1.44,0,0,0,2-2Z" transform="translate(-377 -273.23)"/></svg>