<?xml version="1.0" encoding="utf-8"?>
<!-- Generator: Adobe Illustrator 24.0.2, SVG Export Plug-In . SVG Version: 6.00 Build 0)  -->
<svg version="1.1" id="Capa_1" xmlns="http://www.w3.org/2000/svg" xmlns:xlink="http://www.w3.org/1999/xlink" x="0px" y="0px"
	 width="90" height="90" viewBox="0 0 90 90" style="enable-background:new 0 0 90 90;" xml:space="preserve">
<style type="text/css">
	.st0{fill:#3DCFD3;}
</style>
<title>media</title>
<rect y="0" class="st0" width="90" height="90"/>
<path d="M61.1,26.6c0.1,1.1,1.1,2,2.3,1.9c1.9,0,2.5-0.8,2.5-1.9v-0.4c-0.3-0.6-0.8-1-1.3-1.3c-0.3-0.1-0.6-0.1-1-0.2
	C62.3,24.7,61.1,25.4,61.1,26.6z"/>
<path d="M65.2,20.3c-0.2-1.1-1-2.1-1.9-2.1c-0.9,0-1.5,1-1.3,2.1c0.2,1.1,1,2.1,1.9,2.1c0.9-0.2,1.5-1.1,1.4-2
	C65.2,20.3,65.2,20.3,65.2,20.3z"/>
<path d="M56.6,34.6l3.2-3.2c4.6,3.6,11.3,2.9,14.9-1.7c3.6-4.6,2.9-11.3-1.7-14.9c-4.6-3.6-11.3-2.9-14.9,1.7
	c-1.5,1.9-2.3,4.3-2.3,6.7c0,2.5,0.9,4.8,2.5,6.7L55,33.1L56.6,34.6z M68.2,19.7h2.1v-2.1h0.8v2.1h2.1v0.8h-2.1v2.1h-0.8v-2.1h-2.1
	V19.7z M63.4,23.3c0-0.2,0-0.4,0.2-0.6h-0.4c-1.4,0.1-2.6-1.1-2.7-2.5c0-1.3,1.5-2.5,3.1-2.5h3.4l-0.8,0.6h-1.1
	c0.8,0.2,1.1,1.2,1.1,2.1c0,0.7-0.4,1.4-1,1.9c-0.6,0.4-0.8,0.6-0.8,1c0,0.4,0.6,1,1,1.1c0.8,0.5,1.3,1.4,1.1,2.3
	c0,1.3-1.1,2.5-3.4,2.5c-1.9,0-3.6-0.8-3.6-2.1s1.5-2.5,3.4-2.5h0.6C63.6,24.1,63.4,23.7,63.4,23.3z"/>
<path d="M66.5,56.4c-2.5,0-4.8,0.9-6.7,2.5l-3.2-3.2c-0.4,0.5-0.8,0.9-1.3,1.3l3.2,3.2c-3.7,4.6-3,11.3,1.5,15
	c4.6,3.7,11.3,3,15-1.5c1.6-1.9,2.4-4.3,2.4-6.8C77.2,61,72.4,56.4,66.5,56.4z M63.4,71.9h-2.1v-6.7h2.1V71.9z M62.5,64.3L62.5,64.3
	c-0.6-0.1-1.1-0.7-1-1.3c0.1-0.6,0.7-1.1,1.3-1c0.6,0.1,1,0.6,1,1.1C63.6,63.8,63.2,64.2,62.5,64.3L62.5,64.3z M72,71.9h-2.5v-3.4
	c0-1-0.4-1.5-1.1-1.5c-0.5,0-0.9,0.3-1.2,0.8v4.2H65v-6.7h2.3v1c0.5-0.7,1.3-1.2,2.1-1.2c1.5,0,2.7,1,2.7,3V71.9L72,71.9z"/>
<path d="M32.9,55.6l-3.2,3.2c-4.6-3.6-11.3-2.9-14.9,1.7c-3.6,4.6-2.9,11.3,1.7,14.9s11.3,2.9,14.9-1.7c1.5-1.9,2.3-4.3,2.3-6.7
	c0-2.5-0.9-4.8-2.5-6.7l3.2-3.2L32.9,55.6z M27.5,65.4c0,3.8-3,6.9-6.8,6.9c0,0-0.1,0-0.1,0c-1.3,0-2.6-0.4-3.6-1.1h0.6
	c1.1,0,2.2-0.4,3.1-1c-1-0.1-1.9-0.7-2.3-1.7h1c-1.1-0.2-1.9-1.2-1.9-2.3l0,0c0.3,0.2,0.7,0.3,1.1,0.4c-0.7-0.4-1.1-1.1-1.1-1.9
	c0-0.4,0.2-0.8,0.4-1.2c1.2,1.6,3,2.5,5,2.5v-0.6c0-1.4,1.1-2.5,2.5-2.5c0.7,0,1.3,0.3,1.7,0.8c0.5-0.2,1-0.3,1.5-0.6
	c-0.2,0.6-0.6,1-1.1,1.3c0.5,0,0.9-0.1,1.3-0.4c-0.3,0.5-0.7,0.9-1.1,1.2L27.5,65.4z"/>
<path d="M22.9,33.8c2.5,0,4.9-0.9,6.7-2.5l3.2,3.2c0.4-0.5,0.8-0.9,1.3-1.3L31,30c3.8-4.5,3.2-11.1-1.3-14.9
	c-1.9-1.6-4.4-2.5-6.9-2.5c-5.8,0-10.5,4.7-10.6,10.5c0,0.1,0,0.1,0,0.2C12.3,29.2,17.1,33.9,22.9,33.8z M20.4,21.4h1.2v-1.1
	c0-1.5,0.6-2.5,2.5-2.5h1.5v1.9h-1c-0.8,0-0.8,0.2-0.8,0.8v1h1.8l-0.2,1.9h-1.7v5.4h-2.3v-5.4h-1.1v-1.9L20.4,21.4z"/>
<path d="M54.4,50.5c-0.1-0.3-0.4-0.5-0.8-0.6c-1.7-0.6-3.2-1-5-1.5c-0.2,0-0.6-0.4-0.6-1.2c0-0.4,0-0.6-0.4-0.6c-0.2,0,0,0-0.2-0.2
	c-0.1-0.4-0.2-0.9-0.2-1.3c0-0.2,0.2-0.2,0.2-0.4c0.5-0.7,0.7-1.5,0.8-2.3c0.1,0,0.2-0.1,0.2-0.2c0,0,0,0,0,0c0.2-0.3,0.3-0.7,0.2-1
	c0.2-0.4,0.2-1-0.2-1c-0.2,0.2-0.2,0-0.2-0.4v-2.3c0-0.6-0.4-1.2-1-1.5c-0.6-0.4-0.8-0.6-1-0.6c-0.2-0.1-0.2-0.4-0.1-0.5
	c0,0,0,0,0.1-0.1c0.2-0.2,0.4-0.2,0.4-0.4h-0.2c-0.6,0.1-1.3,0.2-1.9,0.4c-1,0.2-1.9,0.6-2.7,1.2c-0.6,0.4-1,1-1,1.7V40
	c0,0.2,0,0.4-0.2,0.2c-0.6,0-0.2,0.8-0.2,1c0,0.4,0.2,0.6,0.4,1c0,0.1,0.1,0.2,0.2,0.2l0,0c0.2,0.8,0.4,1.6,0.8,2.3
	c0.1,0.1,0.2,0.2,0.2,0.4c0,0.5,0,0.9-0.2,1.3c0,0.1-0.1,0.2-0.2,0.2c0,0,0,0,0,0c-0.4,0-0.4,0.2-0.4,0.6c0,0.6-0.4,1.1-0.6,1.1
	c-1.6,0.6-3.2,1.1-4.8,1.5c-0.4,0.1-0.7,0.3-1,0.6l-1,2.3c3.8,0,5.7,2.3,9.7,3h1.9c4-0.6,6.9-3,9.6-3L54.4,50.5z"/>
</svg>
