<svg id="Layer_1" data-name="Layer 1" xmlns="http://www.w3.org/2000/svg" width="32.59" height="32.59" viewBox="0 0 32.01 32.6"><title>mylo</title><path d="M249.3,205a16.2,16.2,0,0,0-12.59,26.4,9.66,9.66,0,0,1-3.26,4.23.79.79,0,0,0-.3.73.77.77,0,0,0,.51.59,11.15,11.15,0,0,0,9.23-.88,15.86,15.86,0,0,0,6.41,1.32,16.22,16.22,0,0,0,0-32.43Zm0,30.92a14.54,14.54,0,0,1-6.16-1.34.72.72,0,0,0-.71,0,9.69,9.69,0,0,1-5.11,1.46,10,10,0,0,1-1.81-.17,11.27,11.27,0,0,0,2.8-4.38.74.74,0,0,0-.14-.74,14.7,14.7,0,1,1,11.16,5.12Z" transform="translate(-233.1 -204.96)" style="fill:#fff"/><path d="M258.48,215.27c0-.13.1-.26.14-.4a.74.74,0,0,0-.48-.94.73.73,0,0,0-.61.06,6.6,6.6,0,0,1-1.65.68,4.35,4.35,0,0,0-7.11,3.21,9.41,9.41,0,0,1-5.93-3.28.8.8,0,0,0-.65-.28.75.75,0,0,0-.59.38,4.18,4.18,0,0,0-.58,2.13,4.24,4.24,0,0,0,.39,1.79h0a.77.77,0,0,0-.37.65h0a4.19,4.19,0,0,0,1.35,3.09.81.81,0,0,0-.07.63,4.26,4.26,0,0,0,2.08,2.48,6.76,6.76,0,0,1-3.21.43.78.78,0,0,0-.81.5.76.76,0,0,0,.31.89,11,11,0,0,0,5.85,1.68,10.47,10.47,0,0,0,8.05-3.5,11,11,0,0,0,2.79-7.2v-.09a7.75,7.75,0,0,0,1.63-1.75.77.77,0,0,0,0-.91A.78.78,0,0,0,258.48,215.27Zm-2.61,3a9.41,9.41,0,0,1-2.4,6.24,9,9,0,0,1-6.92,3,9.37,9.37,0,0,1-2.41-.31,8,8,0,0,0,2.68-1.35.75.75,0,0,0-.45-1.3,2.83,2.83,0,0,1-2-.9l.5-.1a.77.77,0,0,0,0-1.48,2.74,2.74,0,0,1-2-1.59,3,3,0,0,1,.59.06.75.75,0,0,0,.77-.75.77.77,0,0,0-.32-.63,2.73,2.73,0,0,1-1.25-2.28,1.82,1.82,0,0,1,0-.33,10.87,10.87,0,0,0,6.92,3,.76.76,0,0,0,.63-.26.75.75,0,0,0,.14-.66,2.56,2.56,0,0,1-.06-.62,2.76,2.76,0,0,1,2.78-2.74,2.81,2.81,0,0,1,2.05.87.75.75,0,0,0,.57.23.71.71,0,0,0,0,.57.76.76,0,0,0,.46.48.75.75,0,0,0-.24.58,1.51,1.51,0,0,0,0,.4Z" transform="translate(-233.1 -204.96)" style="fill:#fff"/></svg>