<svg id="Capa_1" data-name="Capa 1" xmlns="http://www.w3.org/2000/svg" width="90" height="90" viewBox="0 0 230 230"><title>web</title><rect width="230" height="230" style="fill:#3dcfd3"/><path d="M467,402a34.47,34.47,0,0,0-29,53.15l-14,13.8,0,0a5.69,5.69,0,0,0,8,8l0,.05,13.64-13.42A34.51,34.51,0,1,0,467,402Zm-37.29,72.88a2.53,2.53,0,1,1,0-3.58A2.54,2.54,0,0,1,429.72,474.87Zm58.15-43.13c-.37,2.6-4.82,5.56-3.71,8.15s-.74,5.56-.74,5.56-1.85,8.51-3,9.62-7.77,4.08-6.3,5.93,5.93-.37,10.37-1.48a32.23,32.23,0,0,0,3.25-1,30.11,30.11,0,0,1-39,2.14l11.91-11.71,15.65-.05,4.28-16-1.7-1.71-8.5,8.51-8.3-8.3,8.5-8.5-1.7-1.71-16,4.29-.05,15.22-.1-.09-11.68,11.5A29.93,29.93,0,0,1,437,440.66a65.46,65.46,0,0,0,8.25-4.84c2.22-1.85-.74-2.59-1.11-3.7s0-3.7,0-6.3,5.18-2.6,7-5.18c1.33-1.85-1.1-5.91-2.61-8.12a30.1,30.1,0,0,1,18.41-6.3,29.63,29.63,0,0,1,5.37.51c.52,3.19,1.59,7.57,3.65,8.72,3.32,1.85,7.4,5.92,8.88,6.66S488.24,429.16,487.87,431.74Zm4.45,2.23c-1.84-1.32-3.34-7-2.22-8.89.66-1.12,2.4-2.09,3.68-2.69a30,30,0,0,1,3.52,14.13,30.35,30.35,0,0,1-.37,4.5A11.75,11.75,0,0,0,492.32,434Z" transform="translate(-346.96 -325.32)" style="fill:#010002"/></svg>